<?xml version="1.0" encoding="utf-8"?>
<!-- Generator: Adobe Illustrator 18.1.0, SVG Export Plug-In . SVG Version: 6.00 Build 0)  -->
<svg version="1.1" id="contact" xmlns="http://www.w3.org/2000/svg" xmlns:xlink="http://www.w3.org/1999/xlink" x="0px" y="0px"
	 viewBox="0 0 500 400" enable-background="new 0 0 500 400" xml:space="preserve">
<ellipse id="head" fill="#FFFFFF" stroke="#000000" stroke-width="2.1673" stroke-miterlimit="10" cx="242.7" cy="137.5" rx="76.3" ry="82.5"/>
<path id="hair" stroke="#000000" stroke-width="2.1673" stroke-miterlimit="10" d="M215.5,82c0,0,32.5,40.9,83.1,27.7
	c0,0-18.1,99,6,110.3c24.1,11.3,57.8-7.9,57.8-7.9s45.8-24.1,0-33.7S339.5,82,339.5,82S350.3-12,222.7,30.2S136,108.5,136,108.5
	s-19.3,58,2.4,111.5s70.2-8.7,70.2-8.7s-52.2-48.3-31.7-79.8S215.5,82,215.5,82z"/>
<path id="body" fill="#FCEE21" stroke="#000000" stroke-width="2.1673" stroke-miterlimit="10" d="M200.9,220c0,0,32.6,47.4,86.8,0
	c51.9-45.4,95,143.8,95,143.8s-135.1,49.4-262.4,6C120.3,369.7,123.8,220,200.9,220z"/>
</svg>
